<svg version="1.1" xmlns="http://www.w3.org/2000/svg" viewBox="0 0 250 250"><desc>Created with Snap</desc><defs></defs><g transform="matrix(0.0363,0,0,0.0363,7.2441,115.6011)"><g transform="matrix(24.6248,0,0,24.6248,4364.9809,-972.1661)"><path d="M49.831,14.185c-11.014,0-19.939,7.899-19.939,17.645s2.393,43.563,20.334,43.563c17.546,0,19.539-33.818,19.539-43.563  S60.841,14.185,49.831,14.185z M49.703,38.537c-8.658,0-15.674-4.655-15.674-10.398c0-5.739,7.016-10.396,15.674-10.396  s15.678,4.657,15.678,10.396C65.381,33.882,58.36,38.537,49.703,38.537z" fill="#165a3f" style=""></path><rect x="38.169" y="10.956" width="1.392" height="6.886" fill="#165a3f" style=""></rect><path d="M40.891,10.042c0,1.125-0.913,2.039-2.041,2.039c-1.129,0-2.041-0.914-2.041-2.039C36.81,8.913,37.722,8,38.851,8  C39.979,8,40.891,8.913,40.891,10.042z" fill="#165a3f" style=""></path><path d="M31.988,33.898c-2.725,0-4.955,2.034-5.31,4.662c-0.332,0.294-0.656,0.604-0.963,0.947  c-3.261,3.657-4.672,9.706-4.025,17.112c-2.639,1.149-4.781,6.55-0.225,9.728c-0.37-1.668,0.414-5.089,2.825-5.459  c1.671-0.466,4.36,0.927,4.36,4.265c1.998-2.003,2.627-8.841-1.412-8.95c-0.475-5.302,0.271-9.674,2.079-12.281  c0.79,0.455,1.694,0.735,2.67,0.735c2.968,0,5.379-2.407,5.379-5.378C37.367,36.307,34.956,33.898,31.988,33.898z" fill="#165a3f" style=""></path><path d="M79.642,58.062c-0.135-10.955-3.369-17.285-7.252-20.211c-0.629-2.273-2.688-3.952-5.158-3.952  c-2.977,0-5.384,2.409-5.384,5.38c0,2.971,2.407,5.378,5.384,5.378c1.179,0,2.26-0.391,3.146-1.035  c1.818,2.248,3.479,6.458,3.684,13.647c-4.865-0.204-5.679,7.021-1.008,9.547c-0.392-3.283,0.854-5.373,2.803-5.649  c2.686,0.092,2.591,4.517,2.411,5.935C83.041,64.24,82.937,59.44,79.642,58.062z" fill="#165a3f" style=""></path><path d="M37.37,28.908c2.084-1.392,6.401-1.89,8.813-0.808c0.504,0.226,0.818,0.069,0.695-0.469  c-1.414-6.17-9.97-5.037-10.282,0.934C36.567,29.116,36.911,29.214,37.37,28.908z" fill="#165a3f" style=""></path><path d="M52.7,28.204c2.279-1.041,6.619-0.842,8.826,0.612c0.461,0.304,0.796,0.2,0.761-0.351  c-0.407-6.319-9.036-6.565-10.297-0.723C51.874,28.282,52.197,28.433,52.7,28.204z" fill="#165a3f" style=""></path><ellipse cx="50" cy="89.5" rx="14" ry="2.5" fill="#165a3f" style=""></ellipse><desc>Created with Snap</desc><defs></defs></g><g><g transform="matrix(1.024,0,0,-1.024,0,0)"><path d="M682 0L573 0L422 215Q394 213 378 213L205 213L205 0L105 0L105 700L378 700Q514 700 592 635Q670 570 670 456Q670 375 630 318Q590 261 516 235L682 0ZM375 298Q470 298 520 339Q570 380 570 456Q570 532 520 572Q470 613 375 613L205 613L205 298L375 298ZM1045 -6Q966 -6 903 29Q840 64 804 125Q769 187 769 265Q769 343 804 404Q840 466 903 500Q966 535 1045 535Q1124 535 1186 500Q1249 466 1284 404Q1320 343 1320 265Q1320 187 1284 125Q1249 64 1186 29Q1124 -6 1045 -6ZM1045 78Q1096 78 1136 101Q1177 125 1200 167Q1223 210 1223 265Q1223 320 1200 362Q1177 405 1136 428Q1096 451 1045 451Q994 451 953 428Q913 405 889 362Q866 320 866 265Q866 210 889 167Q913 125 953 101Q994 78 1045 78ZM1734 535Q1811 535 1872 501Q1933 467 1967 406Q2002 345 2002 265Q2002 185 1967 123Q1933 62 1872 28Q1811 -6 1734 -6Q1675 -6 1626 17Q1577 40 1545 84L1545 0L1453 0L1453 742L1549 742L1549 450Q1581 492 1629 513Q1677 535 1734 535ZM1726 78Q1777 78 1817 101Q1858 125 1881 167Q1905 210 1905 265Q1905 320 1881 362Q1858 405 1817 428Q1777 451 1726 451Q1676 451 1635 428Q1594 405 1571 362Q1548 320 1548 265Q1548 210 1571 167Q1594 125 1635 101Q1676 78 1726 78ZM2362 -6Q2283 -6 2220 29Q2157 64 2121 125Q2086 187 2086 265Q2086 343 2121 404Q2157 466 2220 500Q2283 535 2362 535Q2441 535 2503 500Q2566 466 2601 404Q2637 343 2637 265Q2637 187 2601 125Q2566 64 2503 29Q2441 -6 2362 -6ZM2362 78Q2413 78 2453 101Q2494 125 2517 167Q2540 210 2540 265Q2540 320 2517 362Q2494 405 2453 428Q2413 451 2362 451Q2311 451 2270 428Q2230 405 2206 362Q2183 320 2183 265Q2183 210 2206 167Q2230 125 2270 101Q2311 78 2362 78ZM3038 100L3068 31Q3047 13 3016 3Q2985 -6 2952 -6Q2872 -6 2828 37Q2784 80 2784 160L2784 451L2694 451L2694 530L2784 530L2784 646L2880 646L2880 530L3032 530L3032 451L2880 451L2880 164Q2880 121 2901 98Q2923 75 2963 75Q3007 75 3038 100ZM3184 0L3184 530L3280 530L3280 0L3184 0ZM3232 632Q3204 632 3185 650Q3167 668 3167 694Q3167 720 3185 738Q3204 757 3232 757Q3260 757 3278 739Q3297 722 3297 696Q3297 669 3278 650Q3260 632 3232 632ZM3694 -6Q3613 -6 3549 29Q3486 64 3450 125Q3414 187 3414 265Q3414 343 3450 404Q3486 466 3549 500Q3613 535 3694 535Q3766 535 3822 506Q3879 477 3910 422L3837 375Q3812 413 3775 432Q3738 451 3693 451Q3641 451 3599 428Q3558 405 3534 362Q3511 320 3511 265Q3511 209 3534 166Q3558 124 3599 101Q3641 78 3693 78Q3738 78 3775 97Q3812 116 3837 154L3910 108Q3879 53 3822 23Q3766 -6 3694 -6ZM4186 -6Q4121 -6 4061 11Q4001 29 3967 56L4007 132Q4042 107 4092 92Q4142 77 4193 77Q4319 77 4319 149Q4319 173 4302 187Q4285 201 4259 207Q4234 214 4187 222Q4123 232 4082 245Q4042 258 4013 289Q3984 320 3984 376Q3984 448 4044 491Q4104 535 4205 535Q4258 535 4311 522Q4364 509 4398 487L4357 411Q4292 453 4204 453Q4143 453 4111 433Q4079 413 4079 380Q4079 354 4097 339Q4115 324 4141 317Q4168 310 4216 301Q4280 290 4319 277Q4359 265 4387 235Q4415 205 4415 151Q4415 79 4353 36Q4292 -6 4186 -6Z" fill="#165a3f" style=""></path></g></g><g transform="matrix(1,0,0,1,1917.9524,1088.512)"><g transform="matrix(1.024,0,0,-1.024,0,0)"><path d="M105 0L105 700L400 700Q511 700 597 656Q683 612 730 532Q778 453 778 350Q778 247 730 167Q683 88 597 44Q511 0 400 0L105 0ZM205 87L394 87Q479 87 543 120Q608 153 643 212Q678 272 678 350Q678 428 643 487Q608 547 543 580Q479 613 394 613L205 613L205 87ZM1110 535Q1220 535 1278 481Q1337 427 1337 320L1337 0L1246 0L1246 70Q1222 33 1177 13Q1133 -6 1072 -6Q983 -6 929 37Q876 80 876 150Q876 220 927 262Q978 305 1089 305L1241 305L1241 324Q1241 386 1205 419Q1169 452 1099 452Q1052 452 1007 436Q962 421 931 395L891 467Q932 500 989 517Q1046 535 1110 535ZM1088 68Q1143 68 1183 92Q1223 117 1241 162L1241 236L1093 236Q971 236 971 154Q971 114 1002 91Q1033 68 1088 68ZM1515 0L1515 530L1611 530L1611 0L1515 0ZM1563 632Q1535 632 1516 650Q1498 668 1498 694Q1498 720 1516 738Q1535 757 1563 757Q1591 757 1609 739Q1628 722 1628 696Q1628 669 1609 650Q1591 632 1563 632ZM1794 0L1794 742L1890 742L1890 0L1794 0ZM2448 530L2542 530L2285 -53Q2251 -134 2205 -167Q2160 -200 2096 -200Q2057 -200 2020 -188Q1984 -175 1960 -151L2001 -79Q2042 -118 2096 -118Q2131 -118 2154 -100Q2178 -81 2197 -36L2214 1L1980 530L2080 530L2265 106L2448 530Z" fill="#165a3f" style=""></path></g></g></g></svg>